<?xml version="1.0" encoding="UTF-8" standalone="no"?>
<svg
   xmlns:dc="http://purl.org/dc/elements/1.1/"
   xmlns:cc="http://creativecommons.org/ns#"
   xmlns:rdf="http://www.w3.org/1999/02/22-rdf-syntax-ns#"
   xmlns:svg="http://www.w3.org/2000/svg"
   xmlns="http://www.w3.org/2000/svg"
   xmlns:xlink="http://www.w3.org/1999/xlink"
   xmlns:sodipodi="http://sodipodi.sourceforge.net/DTD/sodipodi-0.dtd"
   xmlns:inkscape="http://www.inkscape.org/namespaces/inkscape"
   width="74mm"
   height="105mm"
   viewBox="0 0 74 105"
   version="1.1"
   id="svg8"
   inkscape:version="1.0.2-2 (e86c870879, 2021-01-15)"
   sodipodi:docname="Humbanew_Entourage_Logotype.svg"
   inkscape:export-filename="C:\Users\humba\OneDrive\Google Drive Arquivos\Humbanew Projects\Humbanew Logotypes Reborn\Humbanew_Entourage_Logotype.png"
   inkscape:export-xdpi="96"
   inkscape:export-ydpi="96">
  <defs
     id="defs2">
    <linearGradient
       inkscape:collect="always"
       xlink:href="#linearGradient2176"
       id="linearGradient2178"
       x1="-324.86386"
       y1="197.25078"
       x2="-246.77188"
       y2="241.59198"
       gradientUnits="userSpaceOnUse"
       gradientTransform="matrix(3.6436189,1.0044252,-1.0044252,3.6436189,501.80378,137.59479)" />
    <linearGradient
       inkscape:collect="always"
       id="linearGradient2176">
      <stop
         style="stop-color:#0000ff;stop-opacity:1;"
         offset="0"
         id="stop2172" />
      <stop
         style="stop-color:#55d400;stop-opacity:1"
         offset="0.66666663"
         id="stop2180" />
      <stop
         style="stop-color:#b3ff80;stop-opacity:1"
         offset="1"
         id="stop2174" />
    </linearGradient>
  </defs>
  <sodipodi:namedview
     id="base"
     pagecolor="#ffffff"
     bordercolor="#666666"
     borderopacity="1.0"
     inkscape:pageopacity="0.0"
     inkscape:pageshadow="2"
     inkscape:zoom="0.35"
     inkscape:cx="-224.28571"
     inkscape:cy="560"
     inkscape:document-units="mm"
     inkscape:current-layer="layer1"
     inkscape:document-rotation="0"
     showgrid="false"
     inkscape:window-width="1366"
     inkscape:window-height="728"
     inkscape:window-x="1455"
     inkscape:window-y="49"
     inkscape:window-maximized="0" />
  <metadata
     id="metadata5">
    <rdf:RDF>
      <cc:Work
         rdf:about="">
        <dc:format>image/svg+xml</dc:format>
        <dc:type
           rdf:resource="http://purl.org/dc/dcmitype/StillImage" />
        <dc:title />
      </cc:Work>
    </rdf:RDF>
  </metadata>
  <g
     inkscape:label="Layer 1"
     inkscape:groupmode="layer"
     id="layer1">
    <g
       id="g2167"
       transform="translate(322.00365,-166.75111)">
      <path
         id="path2188"
         style="fill:url(#linearGradient2178);fill-opacity:1;stroke:none;stroke-width:0.999999"
         d="m -850,530 c -10.42015,-10e-6 -17.21566,3.62133 -21.6543,8.3457 -4.7244,4.43863 -8.34569,11.23415 -8.3457,21.6543 v 180 c 3e-5,10.42012 3.62133,17.21566 8.3457,21.6543 4.43864,4.72436 11.23414,8.34572 21.6543,8.3457 h 180 c 0,0 30,-6e-5 30,-30 -3e-5,-29.99999 -30,-30 -30,-30 h -140 c 0,0 -10,-10e-6 -10,-10 V 600 c 10e-6,-10.00003 10,-10 10,-10 h 100 c 10.00003,10e-6 10,10.26953 10,10.26953 v 83.30274 c 0,0 -3e-5,21.42775 30,21.42773 29.99998,10e-6 30,-21.42773 30,-21.42773 V 555 c 0,0 -0.0113,-5.08125 -3.47461,-10.29492 C -651.36877,530.01224 -670,530 -670,530 Z m 87.53125,68.21289 -11.26563,20.89453 L -785,640 l 11.22852,-0.12695 -7.80469,14.43945 -20.81445,38.5 42.33398,-0.42578 42.33398,-0.42578 -21.51953,-38.07617 -8.08789,-14.3086 8.2461,-0.0918 -11.69141,-20.63477 z"
         transform="matrix(0.26458333,0,0,0.26458333,-83.920315,47.271943)" />
    </g>
  </g>
</svg>
