<?xml version="1.0" encoding="UTF-8" standalone="no"?>
<svg
   xmlns:dc="http://purl.org/dc/elements/1.1/"
   xmlns:cc="http://creativecommons.org/ns#"
   xmlns:rdf="http://www.w3.org/1999/02/22-rdf-syntax-ns#"
   xmlns:svg="http://www.w3.org/2000/svg"
   xmlns="http://www.w3.org/2000/svg"
   xmlns:xlink="http://www.w3.org/1999/xlink"
   xmlns:sodipodi="http://sodipodi.sourceforge.net/DTD/sodipodi-0.dtd"
   xmlns:inkscape="http://www.inkscape.org/namespaces/inkscape"
   width="74mm"
   height="105mm"
   viewBox="0 0 74 105"
   version="1.1"
   id="svg8"
   inkscape:version="1.0.2-2 (e86c870879, 2021-01-15)"
   sodipodi:docname="Humbanew_OS_Logotype.svg"
   inkscape:export-filename="C:\Users\humba\OneDrive\Google Drive Arquivos\Humbanew Projects\Humbanew Logotypes Reborn\Humbanew_OS_Logotype.png"
   inkscape:export-xdpi="96"
   inkscape:export-ydpi="96">
  <defs
     id="defs2">
    <linearGradient
       inkscape:collect="always"
       xlink:href="#linearGradient983"
       id="linearGradient985"
       x1="1330"
       y1="270"
       x2="1570"
       y2="510"
       gradientUnits="userSpaceOnUse"
       gradientTransform="matrix(0.26458333,0,0,0.26458333,-346.64583,-50.6875)" />
    <linearGradient
       inkscape:collect="always"
       id="linearGradient983">
      <stop
         style="stop-color:#80e5ff;stop-opacity:1"
         offset="0"
         id="stop979" />
      <stop
         style="stop-color:#004455;stop-opacity:1"
         offset="1"
         id="stop981" />
    </linearGradient>
  </defs>
  <sodipodi:namedview
     id="base"
     pagecolor="#ffffff"
     bordercolor="#666666"
     borderopacity="1.0"
     inkscape:pageopacity="0.0"
     inkscape:pageshadow="2"
     inkscape:zoom="0.35"
     inkscape:cx="-224.28571"
     inkscape:cy="560"
     inkscape:document-units="mm"
     inkscape:current-layer="layer1"
     inkscape:document-rotation="0"
     showgrid="false"
     inkscape:window-width="1366"
     inkscape:window-height="728"
     inkscape:window-x="1455"
     inkscape:window-y="49"
     inkscape:window-maximized="0" />
  <metadata
     id="metadata5">
    <rdf:RDF>
      <cc:Work
         rdf:about="">
        <dc:format>image/svg+xml</dc:format>
        <dc:type
           rdf:resource="http://purl.org/dc/dcmitype/StillImage" />
        <dc:title></dc:title>
      </cc:Work>
    </rdf:RDF>
  </metadata>
  <g
     inkscape:label="Layer 1"
     inkscape:groupmode="layer"
     id="layer1">
    <path
       id="path135"
       style="fill:url(#linearGradient985);fill-opacity:1;stroke:none;stroke-width:0.264583px;stroke-linecap:butt;stroke-linejoin:miter;stroke-opacity:1"
       d="m 11.864584,20.749999 c 0,0 -1.344428,0.003 -2.7238593,0.919324 -3.8874962,2.088671 -3.8907242,7.018176 -3.8907242,7.018176 v 47.624999 c 0,2.757003 0.958136,4.554973 2.208133,5.729363 1.1743796,1.24999 2.9723555,2.20814 5.7293665,2.20814 h 47.625 c 2.756985,0 4.554986,-0.95815 5.729366,-2.20814 C 67.791864,80.867471 68.75,79.069501 68.75,76.312498 V 28.687499 c 0,0 0,-7.9375 -7.9375,-7.9375 -7.9375,0 -7.9375,7.9375 -7.9375,7.9375 v 37.041666 c 0,0 0,2.645833 -2.645834,2.645833 H 23.770833 C 21.125,68.374998 21.125,65.729165 21.125,65.729165 V 39.270832 c 0,-2.645841 2.717139,-2.645833 2.717139,-2.645833 h 22.040532 c 0,0 5.669413,0 5.669413,-7.9375 0,-7.9375 -5.669413,-7.9375 -5.669413,-7.9375 z m 15.874999,18.520833 c 0,0 -0.829415,0.0052 -1.174088,1.322917 h -0.148828 c -2.645834,0 -2.645834,1.322917 -2.645834,1.322917 v 5.291666 c 0,2.645841 2.645834,3.96875 2.645834,3.96875 0,0 -2.645834,1.322917 -2.645834,3.96875 v 5.291667 c 0,1.322919 2.645834,1.322916 2.645834,1.322916 0,2.645841 1.322916,2.645834 1.322916,2.645834 h 5.291667 c 2.645833,0 3.96875,-2.645834 3.96875,-2.645834 0,0 1.322916,2.645834 3.96875,2.645834 h 5.291666 c 1.322917,0 1.322917,-2.645834 1.322917,-2.645834 0,0 2.645833,3e-6 2.645833,-1.322916 v -5.291667 c 0,-2.645833 -2.645833,-3.96875 -2.645833,-3.96875 0,0 2.645833,-1.322909 2.645833,-3.96875 v -5.291666 c 0,0 0,-1.322917 -2.645833,-1.322917 H 47.417968 C 47.252605,39.932291 46.921875,39.270832 46.260416,39.270832 H 40.96875 c -2.645834,0 -3.96875,2.645834 -3.96875,2.645834 0,0 -1.322917,-2.645834 -3.96875,-2.645834 z m 3.96875,7.9375 h 10.583333 v 9.260417 H 31.708333 Z" />
  </g>
</svg>
