<?xml version="1.0" encoding="UTF-8" standalone="no"?>
<svg
   xmlns:dc="http://purl.org/dc/elements/1.1/"
   xmlns:cc="http://creativecommons.org/ns#"
   xmlns:rdf="http://www.w3.org/1999/02/22-rdf-syntax-ns#"
   xmlns:svg="http://www.w3.org/2000/svg"
   xmlns="http://www.w3.org/2000/svg"
   xmlns:xlink="http://www.w3.org/1999/xlink"
   xmlns:sodipodi="http://sodipodi.sourceforge.net/DTD/sodipodi-0.dtd"
   xmlns:inkscape="http://www.inkscape.org/namespaces/inkscape"
   width="74mm"
   height="105mm"
   viewBox="0 0 74 105"
   version="1.1"
   id="svg8"
   inkscape:version="1.0.2-2 (e86c870879, 2021-01-15)"
   sodipodi:docname="Humbanew_Inquiry_Logotype.svg"
   inkscape:export-filename="C:\Users\humba\OneDrive\Google Drive Arquivos\Humbanew Projects\Humbanew Logotypes Reborn\Humbanew_Inquiry_Logotype.png"
   inkscape:export-xdpi="96"
   inkscape:export-ydpi="96">
  <defs
     id="defs2">
    <linearGradient
       inkscape:collect="always"
       xlink:href="#linearGradient2375"
       id="linearGradient2377"
       x1="770"
       y1="270"
       x2="1010"
       y2="510"
       gradientUnits="userSpaceOnUse"
       gradientTransform="matrix(0.26458333,0,0,0.26458333,-198.47916,-50.6875)" />
    <linearGradient
       inkscape:collect="always"
       id="linearGradient2375">
      <stop
         style="stop-color:#784421;stop-opacity:1"
         offset="0"
         id="stop2371" />
      <stop
         style="stop-color:#d38d5f;stop-opacity:1"
         offset="1"
         id="stop2373" />
    </linearGradient>
  </defs>
  <sodipodi:namedview
     id="base"
     pagecolor="#ffffff"
     bordercolor="#666666"
     borderopacity="1.0"
     inkscape:pageopacity="0.0"
     inkscape:pageshadow="2"
     inkscape:zoom="0.35"
     inkscape:cx="400"
     inkscape:cy="560"
     inkscape:document-units="mm"
     inkscape:current-layer="layer1"
     inkscape:document-rotation="0"
     showgrid="false"
     inkscape:window-width="1366"
     inkscape:window-height="728"
     inkscape:window-x="1455"
     inkscape:window-y="49"
     inkscape:window-maximized="0" />
  <metadata
     id="metadata5">
    <rdf:RDF>
      <cc:Work
         rdf:about="">
        <dc:format>image/svg+xml</dc:format>
        <dc:type
           rdf:resource="http://purl.org/dc/dcmitype/StillImage" />
        <dc:title />
      </cc:Work>
    </rdf:RDF>
  </metadata>
  <g
     inkscape:label="Layer 1"
     inkscape:groupmode="layer"
     id="layer1">
    <path
       id="path2362"
       style="fill:url(#linearGradient2377);fill-opacity:1;stroke:none;stroke-width:0.264583px;stroke-linecap:butt;stroke-linejoin:miter;stroke-opacity:1"
       d="m 13.1875,20.749999 c -2.757001,0 -4.5549765,0.958144 -5.7293665,2.208133 -1.2499893,1.17439 -2.2081329,2.972366 -2.2081329,5.729367 v 47.624999 c 0,2.75699 0.9581436,4.554982 2.2081329,5.729372 C 8.6325235,83.29185 10.430499,84.25 13.1875,84.25 h 47.624999 c 0,0 7.9375,-1e-5 7.9375,-7.937502 0,-7.9375 -7.9375,-7.9375 -7.9375,-7.9375 H 23.770833 c 0,0 -2.645833,-2e-6 -2.645833,-2.645833 V 39.270832 c 0,-2.645841 2.645833,-2.645833 2.645833,-2.645833 h 26.458333 c 2.645841,0 2.645833,2.717146 2.645833,2.717146 v 22.040517 c 0,0 0,5.66942 7.9375,5.66942 7.9375,0 7.9375,-5.66942 7.9375,-5.66942 v -34.01808 c 0,0 -0.0029,-1.344414 -0.919321,-2.723863 C 65.742004,20.753238 60.812499,20.75 60.812499,20.75 Z m 11.90625,18.520833 c 0,0 -1.322917,-10e-7 -1.322917,1.322918 v 5.291665 c -10e-6,1.32792 1.322917,1.322917 1.322917,1.322917 h 5.291666 c -1.322908,0 -1.322916,1.322918 -1.322916,1.322918 v 5.291666 2.645834 c -1.1e-5,1.327924 1.322916,1.322916 1.322916,1.322916 H 25.09375 c -1.322909,0 -1.322917,1.322917 -1.322917,1.322917 v 5.291667 c 0,1.322919 1.322917,1.322916 1.322917,1.322916 h 7.9375 c 0,0 1.322916,3e-6 1.322916,-1.322916 v -5.291667 c 0,-1.322919 1.322917,-1.322917 1.322917,-1.322917 h 2.645833 c 0,0 1.322917,-2e-6 1.322917,1.322917 v 5.291667 c 0,1.322919 1.322917,1.322916 1.322917,1.322916 h 7.9375 c 0,0 1.322916,3e-6 1.322916,-1.322916 v -5.291667 c 0,0 -8e-6,-1.322917 -1.322916,-1.322917 h -5.291667 c 0,0 1.322927,0.005 1.322917,-1.322916 V 53.822916 48.53125 c 0,0 -8e-6,-1.322918 -1.322917,-1.322918 h 5.291667 c 0,0 1.322927,0.005 1.322916,-1.322917 V 40.59375 c 0,-1.322919 -1.322916,-1.322918 -1.322916,-1.322918 h -7.9375 c -1.32292,0 -1.322917,1.322918 -1.322917,1.322918 v 5.291665 c 0,1.32292 -1.322917,1.322917 -1.322917,1.322917 h -2.645833 c 0,0 -1.322917,4e-6 -1.322917,-1.322917 V 40.59375 c 0,0 3e-6,-1.322918 -1.322916,-1.322918 z" />
  </g>
</svg>
