<?xml version="1.0" encoding="UTF-8" standalone="no"?>
<svg
   xmlns:dc="http://purl.org/dc/elements/1.1/"
   xmlns:cc="http://creativecommons.org/ns#"
   xmlns:rdf="http://www.w3.org/1999/02/22-rdf-syntax-ns#"
   xmlns:svg="http://www.w3.org/2000/svg"
   xmlns="http://www.w3.org/2000/svg"
   xmlns:xlink="http://www.w3.org/1999/xlink"
   xmlns:sodipodi="http://sodipodi.sourceforge.net/DTD/sodipodi-0.dtd"
   xmlns:inkscape="http://www.inkscape.org/namespaces/inkscape"
   width="74mm"
   height="105mm"
   viewBox="0 0 74 105"
   version="1.1"
   id="svg8"
   inkscape:version="1.0.2-2 (e86c870879, 2021-01-15)"
   sodipodi:docname="Humbanew_XColors_Logotype.svg"
   inkscape:export-filename="C:\Users\humba\OneDrive\Google Drive Arquivos\Humbanew Projects\Humbanew Logotypes Reborn\Humbanew_Nikko_Logotype.png"
   inkscape:export-xdpi="96"
   inkscape:export-ydpi="96">
  <defs
     id="defs2">
    <linearGradient
       inkscape:collect="always"
       xlink:href="#linearGradient1007"
       id="linearGradient1009"
       x1="2450"
       y1="270"
       x2="2690"
       y2="510"
       gradientUnits="userSpaceOnUse"
       gradientTransform="matrix(0.26458333,0,0,0.26458333,-642.97916,-50.687499)" />
    <linearGradient
       inkscape:collect="always"
       id="linearGradient1007">
      <stop
         style="stop-color:#280b0b;stop-opacity:1"
         offset="0"
         id="stop1003" />
      <stop
         style="stop-color:#d35f5f;stop-opacity:1"
         offset="1"
         id="stop1005" />
    </linearGradient>
  </defs>
  <sodipodi:namedview
     id="base"
     pagecolor="#ffffff"
     bordercolor="#666666"
     borderopacity="1.0"
     inkscape:pageopacity="0.0"
     inkscape:pageshadow="2"
     inkscape:zoom="0.35"
     inkscape:cx="-224.28571"
     inkscape:cy="560"
     inkscape:document-units="mm"
     inkscape:current-layer="layer1"
     inkscape:document-rotation="0"
     showgrid="false"
     inkscape:window-width="1366"
     inkscape:window-height="728"
     inkscape:window-x="1455"
     inkscape:window-y="49"
     inkscape:window-maximized="0" />
  <metadata
     id="metadata5">
    <rdf:RDF>
      <cc:Work
         rdf:about="">
        <dc:format>image/svg+xml</dc:format>
        <dc:type
           rdf:resource="http://purl.org/dc/dcmitype/StillImage" />
        <dc:title></dc:title>
      </cc:Work>
    </rdf:RDF>
  </metadata>
  <g
     inkscape:label="Layer 1"
     inkscape:groupmode="layer"
     id="layer1">
    <path
       id="path156"
       style="fill:url(#linearGradient1009);fill-opacity:1;stroke:none;stroke-width:0.264583px;stroke-linecap:butt;stroke-linejoin:miter;stroke-opacity:1"
       d="m 13.1875,20.75 c -2.75699,0 -4.55499,0.958144 -5.72937,2.208134 C 6.20813,24.132523 5.25,25.930499 5.25,28.6875 v 47.625 c 0,0 0,7.9375 7.9375,7.9375 7.9375,0 7.9375,-7.9375 7.9375,-7.9375 V 39.270833 c 0,0 0,-2.645833 2.64583,-2.645833 h 26.45833 c 2.64584,0 2.64584,2.645833 2.64584,2.645833 v 26.458336 c 0,2.645841 -2.71714,2.645831 -2.71714,2.645831 H 28.11733 c 0,0 -5.66942,0 -5.66942,7.9375 0,7.9375 5.66942,7.9375 5.66942,7.9375 h 34.01808 c 0,0 1.34443,-0.003 2.72386,-0.91932 C 68.74677,81.24201 68.75,76.3125 68.75,76.3125 v -47.625 c 0,-2.757001 -0.95814,-4.554977 -2.20814,-5.729366 C 65.36749,21.708145 63.56951,20.75 60.8125,20.75 Z m 11.90625,18.520833 c -1.32792,0 -1.32292,1.322917 -1.32292,1.322917 v 15.875 c 0,1.322919 1.32292,1.322917 1.32292,1.322917 h 1.32291 c 1.32792,0 1.32292,-1.322917 1.32292,-1.322917 V 44.5625 c 0,-1.322919 0,-1.322919 1.32292,0 l 3.96875,3.96875 1.98437,1.984375 -9.92187,9.921875 c 0,0 -1.32292,1.322914 -1.32292,2.645833 v 1.322917 c 0,1.32792 1.32292,1.322919 1.32292,1.322919 h 7.9375 7.9375 7.9375 c 0,0 1.32291,0.005 1.32291,-1.322919 v -1.322917 c 0,-1.322919 -1.32291,-2.645833 -1.32291,-2.645833 L 44.9375,56.46875 38.98437,50.515625 44.9375,44.5625 c 1.32291,-1.322919 1.32291,-1.322919 1.32291,0 v 11.90625 c 0,0 -0.005,1.322917 1.32292,1.322917 h 1.32292 c 0,0 1.32291,3e-6 1.32291,-1.322917 v -15.875 c 0,0 0.005,-1.322917 -1.32291,-1.322917 h -1.32292 c -1.32292,0 -2.64583,1.322917 -2.64583,1.322917 L 40.96875,44.5625 37,48.53125 33.03125,44.5625 29.0625,40.59375 c 0,0 -1.32292,-1.322917 -2.64584,-1.322917 z M 37,52.5 l 3.96875,3.96875 3.96875,3.96875 c 1.32291,1.322919 1.32291,1.322917 0,1.322917 h -3.96875 -7.9375 -3.96875 c -1.32292,0 -1.32292,3e-6 0,-1.322917 z"
       inkscape:export-xdpi="96"
       inkscape:export-ydpi="96" />
  </g>
</svg>
