<?xml version="1.0" encoding="UTF-8" standalone="no"?>
<svg
   xmlns:dc="http://purl.org/dc/elements/1.1/"
   xmlns:cc="http://creativecommons.org/ns#"
   xmlns:rdf="http://www.w3.org/1999/02/22-rdf-syntax-ns#"
   xmlns:svg="http://www.w3.org/2000/svg"
   xmlns="http://www.w3.org/2000/svg"
   xmlns:xlink="http://www.w3.org/1999/xlink"
   xmlns:sodipodi="http://sodipodi.sourceforge.net/DTD/sodipodi-0.dtd"
   xmlns:inkscape="http://www.inkscape.org/namespaces/inkscape"
   width="74mm"
   height="105mm"
   viewBox="0 0 74 105"
   version="1.1"
   id="svg8"
   inkscape:version="1.0.2-2 (e86c870879, 2021-01-15)"
   sodipodi:docname="Humbanew_WCube_Logotype.svg"
   inkscape:export-filename="C:\Users\humba\OneDrive\Google Drive Arquivos\Humbanew Projects\Humbanew Logotypes Reborn\Humbanew_WCube_Logotype.png"
   inkscape:export-xdpi="96"
   inkscape:export-ydpi="96">
  <defs
     id="defs2">
    <linearGradient
       inkscape:collect="always"
       xlink:href="#linearGradient2127"
       id="linearGradient2112"
       gradientUnits="userSpaceOnUse"
       gradientTransform="rotate(90,-31.297905,229.95832)"
       x1="-177.40982"
       y1="129.98845"
       x2="-240.90982"
       y2="193.48845" />
    <linearGradient
       inkscape:collect="always"
       id="linearGradient2127">
      <stop
         style="stop-color:#ff5555;stop-opacity:1"
         offset="0"
         id="stop2123" />
      <stop
         style="stop-color:#aa0000;stop-opacity:1"
         offset="1"
         id="stop2125" />
    </linearGradient>
  </defs>
  <sodipodi:namedview
     id="base"
     pagecolor="#ffffff"
     bordercolor="#666666"
     borderopacity="1.0"
     inkscape:pageopacity="0.0"
     inkscape:pageshadow="2"
     inkscape:zoom="0.35"
     inkscape:cx="-224.28571"
     inkscape:cy="560"
     inkscape:document-units="mm"
     inkscape:current-layer="layer1"
     inkscape:document-rotation="0"
     showgrid="false"
     inkscape:window-width="1366"
     inkscape:window-height="728"
     inkscape:window-x="1542"
     inkscape:window-y="187"
     inkscape:window-maximized="0" />
  <metadata
     id="metadata5">
    <rdf:RDF>
      <cc:Work
         rdf:about="">
        <dc:format>image/svg+xml</dc:format>
        <dc:type
           rdf:resource="http://purl.org/dc/dcmitype/StillImage" />
        <dc:title />
      </cc:Work>
    </rdf:RDF>
  </metadata>
  <g
     inkscape:label="Layer 1"
     inkscape:groupmode="layer"
     id="layer1">
    <path
       id="path2106"
       style="fill:url(#linearGradient2112);fill-opacity:1;stroke:none;stroke-width:0.264583px;stroke-linecap:butt;stroke-linejoin:miter;stroke-opacity:1"
       d="m 13.1875,20.75 c -2.757,0 -4.5549751,0.958146 -5.7293651,2.208133 -1.249987,1.17439 -2.208134,2.972366 -2.208134,5.729367 v 47.625 c 0,2.75699 0.958147,4.55498 2.208134,5.72937 C 8.6325249,83.29186 10.4305,84.25 13.1875,84.25 h 47.625 c 0,0 7.937499,-1e-5 7.937499,-7.9375 0,-7.9375 -7.937499,-7.9375 -7.937499,-7.9375 H 23.770834 c 0,0 -2.645834,0 -2.645834,-2.64583 V 39.270833 c 0,-2.645839 2.645834,-2.645833 2.645834,-2.645833 h 26.458332 c 2.645842,0 2.645834,2.717146 2.645834,2.717146 V 61.38267 c 0,0 2e-6,5.66942 7.9375,5.66942 7.937499,0 7.937499,-5.66942 7.937499,-5.66942 V 27.364583 c 0,0 -0.003,-1.344414 -0.919323,-2.723864 C 65.742015,20.753238 60.8125,20.75 60.8125,20.75 Z m 19.004008,17.928105 c -1.596949,0 -1.653646,0.377754 -1.653646,0.377754 v 4.913913 c 0,0 0.01611,0.0943 0.229444,0.188619 -0.214982,0.0947 -0.229444,0.189134 -0.229444,0.189134 v 1.071769 c -0.0817,-0.147558 -0.155029,-0.166915 -0.155029,-0.166915 h -4.913912 c 0,0 -0.377755,0.06301 -0.377755,1.653646 v 3.307292 c 0,1.590656 0.377755,1.653646 0.377755,1.653646 0,0 -0.377755,0.063 -0.377755,1.653645 V 56.8279 c 0,1.59066 0.377755,1.65365 0.377755,1.65365 h 4.913912 c 0,0 0.0941,-0.0159 0.188619,-0.23048 1.89e-4,4.3e-4 3.28e-4,6.1e-4 5.17e-4,0.001 v 1.51722 c 0,0 0.01611,0.0943 0.229443,0.18862 -0.214982,0.0947 -0.229443,0.18913 -0.229443,0.18913 v 4.91391 c 0,0 0.06301,0.37776 1.653646,0.37776 h 3.307291 c 1.59066,0 1.653646,-0.37776 1.653646,-0.37776 0,0 0.06299,0.37776 1.653646,0.37776 h 3.307292 c 1.590651,0 1.653645,-0.37776 1.653645,-0.37776 v -4.91391 c 0,0 -0.0159,-0.0941 -0.230476,-0.18862 0.21458,-0.0945 0.230476,-0.18913 0.230476,-0.18913 v -1.28778 h 4.837948 c 0,0 0.377755,-0.063 0.377755,-1.65365 v -3.307292 c 0,-1.596953 -0.377755,-1.653645 -0.377755,-1.653645 0,0 0.377755,-0.063 0.377755,-1.653646 v -3.307292 c 0,-1.596948 -0.377755,-1.653646 -0.377755,-1.653646 h -4.872054 v -0.904854 c 0,0 -0.0159,-0.0941 -0.230477,-0.188618 0.21458,-0.0945 0.230477,-0.189135 0.230477,-0.189135 v -4.913913 c 0,0 -0.06301,-0.377754 -1.653646,-0.377754 h -3.307291 c -1.596959,0 -1.653646,0.377754 -1.653646,0.377754 0,0 -0.063,-0.377754 -1.653646,-0.377754 z m 4.960938,10.583334 c 0,0 0.05531,0.242683 0.903304,0.337962 v 0.613916 c 0,1.590656 0.377755,1.653646 0.377755,1.653646 0,0 -0.377755,0.063 -0.377755,1.653645 v 1.000452 c -0.819747,0.0977 -0.869198,0.33435 -0.869198,0.33435 0,0 -0.0496,-0.29024 -1.134297,-0.36173 v -0.973072 c 0,-1.596953 -0.377755,-1.653645 -0.377755,-1.653645 0,0 0.377755,-0.063 0.377755,-1.653646 v -0.592728 c 1.049151,-0.07554 1.100191,-0.35915 1.100191,-0.35915 z" />
  </g>
</svg>
