<?xml version="1.0" encoding="UTF-8" standalone="no"?>
<svg
   xmlns:dc="http://purl.org/dc/elements/1.1/"
   xmlns:cc="http://creativecommons.org/ns#"
   xmlns:rdf="http://www.w3.org/1999/02/22-rdf-syntax-ns#"
   xmlns:svg="http://www.w3.org/2000/svg"
   xmlns="http://www.w3.org/2000/svg"
   xmlns:xlink="http://www.w3.org/1999/xlink"
   xmlns:sodipodi="http://sodipodi.sourceforge.net/DTD/sodipodi-0.dtd"
   xmlns:inkscape="http://www.inkscape.org/namespaces/inkscape"
   width="74mm"
   height="105mm"
   viewBox="0 0 74 105"
   version="1.1"
   id="svg8"
   inkscape:version="1.0.2-2 (e86c870879, 2021-01-15)"
   sodipodi:docname="Humbanew_Vibes_Logotype.svg"
   inkscape:export-filename="C:\Users\humba\OneDrive\Google Drive Arquivos\Humbanew Projects\Humbanew Logotypes Reborn\Humbanew_Vibes_Logotype.png"
   inkscape:export-xdpi="96"
   inkscape:export-ydpi="96">
  <defs
     id="defs2">
    <linearGradient
       inkscape:collect="always"
       xlink:href="#linearGradient2151"
       id="linearGradient2153"
       x1="215"
       y1="275"
       x2="455"
       y2="515"
       gradientUnits="userSpaceOnUse"
       gradientTransform="matrix(0.26458333,0,0,0.26458333,-51.71345,-52.414012)" />
    <linearGradient
       inkscape:collect="always"
       id="linearGradient2151">
      <stop
         style="stop-color:#0000ff;stop-opacity:1"
         offset="0"
         id="stop2147" />
      <stop
         style="stop-color:#ffcc00;stop-opacity:1"
         offset="0.49965671"
         id="stop2155" />
      <stop
         style="stop-color:#00aa00;stop-opacity:1"
         offset="1"
         id="stop2149" />
    </linearGradient>
  </defs>
  <sodipodi:namedview
     id="base"
     pagecolor="#ffffff"
     bordercolor="#666666"
     borderopacity="1.0"
     inkscape:pageopacity="0.0"
     inkscape:pageshadow="2"
     inkscape:zoom="0.35"
     inkscape:cx="-224.28571"
     inkscape:cy="560"
     inkscape:document-units="mm"
     inkscape:current-layer="layer1"
     inkscape:document-rotation="0"
     showgrid="false"
     inkscape:window-width="1366"
     inkscape:window-height="728"
     inkscape:window-x="1455"
     inkscape:window-y="49"
     inkscape:window-maximized="0" />
  <metadata
     id="metadata5">
    <rdf:RDF>
      <cc:Work
         rdf:about="">
        <dc:format>image/svg+xml</dc:format>
        <dc:type
           rdf:resource="http://purl.org/dc/dcmitype/StillImage" />
        <dc:title />
      </cc:Work>
    </rdf:RDF>
  </metadata>
  <g
     inkscape:label="Layer 1"
     inkscape:groupmode="layer"
     id="layer1">
    <path
       id="path2129"
       style="fill:url(#linearGradient2153);fill-opacity:1;stroke:none;stroke-width:0.264583px;stroke-linecap:butt;stroke-linejoin:miter;stroke-opacity:1"
       d="m 11.86458,20.75 c 0,0 -1.34441,0.003 -2.72386,0.91932 C 5.25324,23.75799 5.25,28.6875 5.25,28.6875 v 47.625 c 0,2.757 0.95814,4.55497 2.20813,5.72936 C 8.63252,83.29185 10.4305,84.25 13.1875,84.25 h 47.625 c 2.75699,0 4.55498,-0.95815 5.72937,-2.20814 C 67.79186,80.86747 68.75,79.0695 68.75,76.3125 v -47.625 c 0,0 -1e-5,-7.9375 -7.9375,-7.9375 -7.9375,0 -7.9375,7.9375 -7.9375,7.9375 v 37.04166 c 0,0 -1e-5,2.64584 -2.64583,2.64584 H 23.77083 C 21.125,68.375 21.125,65.72916 21.125,65.72916 V 39.27083 c 0,-2.64584 2.71715,-2.64583 2.71715,-2.64583 h 22.04051 c 0,0 5.66942,0 5.66942,-7.9375 0,-7.9375 -5.66942,-7.9375 -5.66942,-7.9375 z m 13.15114,19.44015 c -1.32292,0 -1.32292,1.32292 -1.32292,1.32292 v 22.48958 c 0,0 0,1.32292 1.32292,1.32292 h 2.64583 2.64584 2.64583 c 1.32292,0 1.32292,-1.32292 1.32292,-1.32292 V 45.48182 c 0,0 0,-1.32292 2.64583,-1.32292 2.64583,0 2.64583,1.32292 2.64583,1.32292 v 18.52083 c 0,0 -0.005,1.32292 1.32292,1.32292 h 2.64583 2.64584 2.64583 c 1.32292,0 1.32292,-1.32292 1.32292,-1.32292 V 41.51307 c 0,0 0,-1.32292 -1.32292,-1.32292 H 47.5053 c -1.32291,0 -1.32291,1.32292 -1.32291,1.32292 V 60.0339 c 0,0 0,1.32292 -1.32292,1.32292 -1.32292,0 -1.32292,-1.32292 -1.32292,-1.32292 V 41.51307 c 0,0 0,-1.32292 -1.32291,-1.32292 H 39.5678 34.27614 31.6303 c -1.32291,0 -1.32291,1.32292 -1.32291,1.32292 V 60.0339 c 0,0 0,1.32292 -1.32292,1.32292 -1.32292,0 -1.32292,-1.32292 -1.32292,-1.32292 V 41.51307 c 0,0 0,-1.32292 -1.32291,-1.32292 z" />
  </g>
</svg>
