<?xml version="1.0" encoding="UTF-8" standalone="no"?>
<svg
   xmlns:dc="http://purl.org/dc/elements/1.1/"
   xmlns:cc="http://creativecommons.org/ns#"
   xmlns:rdf="http://www.w3.org/1999/02/22-rdf-syntax-ns#"
   xmlns:svg="http://www.w3.org/2000/svg"
   xmlns="http://www.w3.org/2000/svg"
   xmlns:xlink="http://www.w3.org/1999/xlink"
   xmlns:sodipodi="http://sodipodi.sourceforge.net/DTD/sodipodi-0.dtd"
   xmlns:inkscape="http://www.inkscape.org/namespaces/inkscape"
   width="74mm"
   height="105mm"
   viewBox="0 0 74 105"
   version="1.1"
   id="svg8"
   inkscape:version="1.0.2-2 (e86c870879, 2021-01-15)"
   sodipodi:docname="Humbanew_UNote_Logotype.svg"
   inkscape:export-filename="C:\Users\humba\OneDrive\Google Drive Arquivos\Humbanew Projects\Humbanew Logotypes Reborn\Humbanew_UNote_Logotype.png"
   inkscape:export-xdpi="96"
   inkscape:export-ydpi="96">
  <defs
     id="defs2">
    <linearGradient
       inkscape:collect="always"
       xlink:href="#linearGradient2039"
       id="linearGradient2344"
       gradientUnits="userSpaceOnUse"
       gradientTransform="matrix(0,-0.26458333,0.26458333,0,-64.864598,-220.02082)"
       x1="-1149.873"
       y1="265.00003"
       x2="-909.87305"
       y2="505.00003" />
    <linearGradient
       inkscape:collect="always"
       id="linearGradient2039">
      <stop
         style="stop-color:#ff9955;stop-opacity:1"
         offset="0"
         id="stop2035" />
      <stop
         style="stop-color:#d45500;stop-opacity:1"
         offset="1"
         id="stop2037" />
    </linearGradient>
  </defs>
  <sodipodi:namedview
     id="base"
     pagecolor="#ffffff"
     bordercolor="#666666"
     borderopacity="1.0"
     inkscape:pageopacity="0.0"
     inkscape:pageshadow="2"
     inkscape:zoom="0.35"
     inkscape:cx="-224.28571"
     inkscape:cy="560"
     inkscape:document-units="mm"
     inkscape:current-layer="layer1"
     inkscape:document-rotation="0"
     showgrid="false"
     inkscape:window-width="1366"
     inkscape:window-height="728"
     inkscape:window-x="1455"
     inkscape:window-y="49"
     inkscape:window-maximized="0" />
  <metadata
     id="metadata5">
    <rdf:RDF>
      <cc:Work
         rdf:about="">
        <dc:format>image/svg+xml</dc:format>
        <dc:type
           rdf:resource="http://purl.org/dc/dcmitype/StillImage" />
        <dc:title />
      </cc:Work>
    </rdf:RDF>
  </metadata>
  <g
     inkscape:label="Layer 1"
     inkscape:groupmode="layer"
     id="layer1">
    <path
       id="path2338"
       style="fill:url(#linearGradient2344);fill-opacity:1;stroke:none;stroke-width:0.264583px;stroke-linecap:butt;stroke-linejoin:miter;stroke-opacity:1"
       d="m 13.1875,20.750001 c 0,0 -7.9374996,1.1e-5 -7.9374996,7.9375 0,7.9375 7.9374996,7.9375 7.9374996,7.9375 h 37.041667 c 0,0 2.645833,4e-6 2.645833,2.645834 v 26.458333 c 0,2.645841 -2.645833,2.645833 -2.645833,2.645833 H 23.770834 c -2.645831,0 -2.645834,-2.717147 -2.645834,-2.717147 V 43.617339 c 0,0 0,-5.669421 -7.9375,-5.669421 -7.9374996,0 -7.9374996,5.669421 -7.9374996,5.669421 v 34.018079 c 0,0 0.00299,1.34442 0.9193239,2.723861 2.0886711,3.88749 7.0181757,3.89072 7.0181757,3.89072 h 47.625 c 2.757001,0 4.554977,-0.95813 5.729367,-2.20813 C 67.791856,80.867489 68.75,79.069479 68.75,76.312499 V 28.687501 c 0,-2.75699 -0.958144,-4.554977 -2.208133,-5.729367 -1.17439,-1.249989 -2.972366,-2.208133 -5.729367,-2.208133 z m 32.54375,18.250567 c -0.04143,0 -0.07791,0.0037 -0.116789,0.0057 H 30.541998 c 0,0 -1.005623,-0.0049 -1.005623,1.322917 v 2.645833 c 0,1.322922 1.005623,1.322917 1.005623,1.322917 h 13.866336 v 10.31875 H 30.541998 c 0,0 -1.005623,-0.0049 -1.005623,1.322916 v 2.645834 c 0,1.322919 1.005623,1.322916 1.005623,1.322916 h 18.099669 c 0,0 0.437504,-0.0024 0.735356,-0.382923 C 49.7,59.219921 49.7,58.812808 49.7,58.812808 V 40.042881 c 0,0 2.65e-4,-0.651557 -0.656807,-0.923975 -0.212756,-0.106145 -0.401526,-0.112654 -0.401526,-0.112654 h -0.147794 c -0.03893,-0.0019 -0.07529,-0.0057 -0.116789,-0.0057 z m -20.637499,0.270266 c -1.32292,0 -1.322917,1.322917 -1.322917,1.322917 v 23.8125 c 0,0.459938 0.16138,0.757192 0.370004,0.952912 0.19572,0.208624 0.492974,0.370004 0.952913,0.370004 h 2.645833 21.166666 c 0,0 1.322917,3e-6 1.322917,-1.322916 v -2.645834 c 0,-1.322919 -1.322917,-1.322916 -1.322917,-1.322916 H 29.0625 v -19.84375 c 0,0 3e-6,-1.322917 -1.322916,-1.322917 z" />
  </g>
</svg>
