<?xml version="1.0" encoding="UTF-8" standalone="no"?>
<svg
   xmlns:dc="http://purl.org/dc/elements/1.1/"
   xmlns:cc="http://creativecommons.org/ns#"
   xmlns:rdf="http://www.w3.org/1999/02/22-rdf-syntax-ns#"
   xmlns:svg="http://www.w3.org/2000/svg"
   xmlns="http://www.w3.org/2000/svg"
   xmlns:xlink="http://www.w3.org/1999/xlink"
   xmlns:sodipodi="http://sodipodi.sourceforge.net/DTD/sodipodi-0.dtd"
   xmlns:inkscape="http://www.inkscape.org/namespaces/inkscape"
   width="74mm"
   height="105mm"
   viewBox="0 0 74 105"
   version="1.1"
   id="svg8"
   inkscape:version="1.0.2-2 (e86c870879, 2021-01-15)"
   sodipodi:docname="Humbanew_Nikko_Logotype.svg"
   inkscape:export-filename="C:\Users\humba\OneDrive\Google Drive Arquivos\Humbanew Projects\Humbanew Logotypes Reborn\Humbanew_Nikko_Logotype.png"
   inkscape:export-xdpi="96"
   inkscape:export-ydpi="96">
  <defs
     id="defs2">
    <linearGradient
       inkscape:collect="always"
       xlink:href="#linearGradient1975"
       id="linearGradient1916"
       x1="-1149.8555"
       y1="265"
       x2="-909.85547"
       y2="505"
       gradientUnits="userSpaceOnUse"
       gradientTransform="matrix(0.26458333,0,0,0.26458333,309.52084,-49.364584)" />
    <linearGradient
       inkscape:collect="always"
       id="linearGradient1975">
      <stop
         style="stop-color:#ffe680;stop-opacity:1"
         offset="0"
         id="stop1971" />
      <stop
         style="stop-color:#ffcc00;stop-opacity:1"
         offset="1"
         id="stop1973" />
    </linearGradient>
  </defs>
  <sodipodi:namedview
     id="base"
     pagecolor="#ffffff"
     bordercolor="#666666"
     borderopacity="1.0"
     inkscape:pageopacity="0.0"
     inkscape:pageshadow="2"
     inkscape:zoom="0.35"
     inkscape:cx="-224.28571"
     inkscape:cy="560"
     inkscape:document-units="mm"
     inkscape:current-layer="layer1"
     inkscape:document-rotation="0"
     showgrid="false"
     inkscape:window-width="1366"
     inkscape:window-height="728"
     inkscape:window-x="1455"
     inkscape:window-y="49"
     inkscape:window-maximized="0" />
  <metadata
     id="metadata5">
    <rdf:RDF>
      <cc:Work
         rdf:about="">
        <dc:format>image/svg+xml</dc:format>
        <dc:type
           rdf:resource="http://purl.org/dc/dcmitype/StillImage" />
        <dc:title />
      </cc:Work>
    </rdf:RDF>
  </metadata>
  <g
     inkscape:label="Layer 1"
     inkscape:groupmode="layer"
     id="layer1">
    <path
       id="path1897"
       style="fill:url(#linearGradient1916);fill-opacity:1;stroke:none;stroke-width:0.264583px;stroke-linecap:butt;stroke-linejoin:miter;stroke-opacity:1"
       d="m 46.260425,39.208302 c -3.96875,0 -3.96875,1.30483 -3.96875,1.30483 v 2.78898 5.22914 c 0,-0.0624 0,1.26038 -1.32292,1.26038 h -7.9375 c 0,0 -1.32292,0 -1.32292,3.96875 0,3.96876 1.32292,3.96875 1.32292,3.96875 h 15.875 c 1.32292,0 1.32292,-1.32291 1.32292,-1.32291 v -15.875 c 0,0 0,-1.32292 -3.96875,-1.32292 z m -14.55209,14.55208 v -5.22913 c 0,0.0624 0,-1.26039 1.32292,-1.26039 h 7.9375 c 0,0 1.32292,0 1.32292,-3.96875 0,-3.96875 -1.32292,-3.96875 -1.32292,-3.96875 h -15.875 c -1.322916,0 -1.322916,1.32292 -1.322916,1.32292 v 15.87499 c 0,0 0.0032,0.99938 2.612231,1.26039 h -1.289315 c 0,0 -1.322916,0 -1.322916,3.96875 0,3.96875 1.322916,3.96875 1.322916,3.96875 h 23.8125 c 0,0 1.32292,0 1.32292,-3.96875 0,-3.96875 -1.32292,-3.96875 -1.32292,-3.96875 H 29.100737 c 2.604158,-0.25819 2.607598,-1.2423 2.607598,-1.2423 z M 11.864589,20.749998 c 0,0 -1.344429,0.0029 -2.7238597,0.919324 -3.887497,2.088666 -3.890724,7.018176 -3.890724,7.018176 v 47.625004 c 0,2.757 0.958135,4.55498 2.208133,5.72937 1.174379,1.24999 2.9723817,2.20813 5.7293667,2.20813 h 47.625 c 2.75699,0 4.55497,-0.95814 5.72936,-2.20813 1.24999,-1.17439 2.20813,-2.97237 2.20813,-5.72937 V 28.687498 c 0,0 0,-7.9375 -7.93749,-7.9375 -7.9375,0 -7.9375,7.9375 -7.9375,7.9375 l -1e-5,37.041674 c 0,0 0,2.64583 -2.64583,2.64583 H 23.770839 c -2.645834,0 -2.645834,-2.64583 -2.645834,-2.64583 v -26.45834 c 0,-2.64583 2.716954,-2.64583 2.716954,-2.64583 h 22.040706 c 0,0 5.66942,0 5.66942,-7.937504 0,-7.9375 -5.66942,-7.9375 -5.66942,-7.9375 z" />
  </g>
</svg>
