<?xml version="1.0" encoding="UTF-8" standalone="no"?>
<svg
   xmlns:dc="http://purl.org/dc/elements/1.1/"
   xmlns:cc="http://creativecommons.org/ns#"
   xmlns:rdf="http://www.w3.org/1999/02/22-rdf-syntax-ns#"
   xmlns:svg="http://www.w3.org/2000/svg"
   xmlns="http://www.w3.org/2000/svg"
   xmlns:xlink="http://www.w3.org/1999/xlink"
   xmlns:sodipodi="http://sodipodi.sourceforge.net/DTD/sodipodi-0.dtd"
   xmlns:inkscape="http://www.inkscape.org/namespaces/inkscape"
   width="74mm"
   height="105mm"
   viewBox="0 0 74 105"
   version="1.1"
   id="svg8"
   inkscape:version="1.0.2-2 (e86c870879, 2021-01-15)"
   sodipodi:docname="Humbanew_SGMP_Logotype.svg"
   inkscape:export-filename="C:\Users\humba\OneDrive\Google Drive Arquivos\Humbanew Projects\Humbanew Logotypes Reborn\Humbanew_SGMP_Logotype.png"
   inkscape:export-xdpi="96"
   inkscape:export-ydpi="96">
  <defs
     id="defs2">
    <linearGradient
       inkscape:collect="always"
       xlink:href="#linearGradient2669"
       id="linearGradient2625"
       gradientUnits="userSpaceOnUse"
       x1="770"
       y1="270"
       x2="1010"
       y2="510"
       gradientTransform="matrix(0.26458333,0,0,0.26458333,-198.47916,-50.687496)" />
    <linearGradient
       inkscape:collect="always"
       id="linearGradient2669">
      <stop
         style="stop-color:#483737;stop-opacity:1"
         offset="0"
         id="stop2665" />
      <stop
         style="stop-color:#ac9393;stop-opacity:1"
         offset="1"
         id="stop2667" />
    </linearGradient>
  </defs>
  <sodipodi:namedview
     id="base"
     pagecolor="#ffffff"
     bordercolor="#666666"
     borderopacity="1.0"
     inkscape:pageopacity="0.0"
     inkscape:pageshadow="2"
     inkscape:zoom="0.35"
     inkscape:cx="-224.28571"
     inkscape:cy="560"
     inkscape:document-units="mm"
     inkscape:current-layer="layer1"
     inkscape:document-rotation="0"
     showgrid="false"
     inkscape:window-width="1366"
     inkscape:window-height="728"
     inkscape:window-x="1455"
     inkscape:window-y="49"
     inkscape:window-maximized="0" />
  <metadata
     id="metadata5">
    <rdf:RDF>
      <cc:Work
         rdf:about="">
        <dc:format>image/svg+xml</dc:format>
        <dc:type
           rdf:resource="http://purl.org/dc/dcmitype/StillImage" />
        <dc:title />
      </cc:Work>
    </rdf:RDF>
  </metadata>
  <g
     inkscape:label="Layer 1"
     inkscape:groupmode="layer"
     id="layer1">
    <path
       id="path2623"
       style="fill:url(#linearGradient2625);fill-opacity:1;stroke:none;stroke-width:0.264583px;stroke-linecap:butt;stroke-linejoin:miter;stroke-opacity:1"
       d="m 13.187499,20.75 c -2.756984,0 -4.5549865,0.958144 -5.7293655,2.208133 -1.249998,1.17439 -2.208133,2.972366 -2.208133,5.729367 v 47.625 c 0,0 0,7.9375 7.9374985,7.9375 7.9375,0 7.9375,-7.9375 7.9375,-7.9375 V 39.270833 c 0,0 0,-2.645833 2.645834,-2.645833 h 26.458333 c 2.645833,0 2.645833,2.645833 2.645833,2.645833 v 26.458333 c 0,2.645841 -2.717139,2.645834 -2.717139,2.645834 H 28.117328 c 0,0 -5.669412,0 -5.669412,7.937499 0,7.9375 5.669412,7.9375 5.669412,7.9375 h 34.018087 c 0,0 1.344428,-0.003 2.723859,-0.919324 C 68.746771,81.242004 68.75,76.3125 68.75,76.3125 v -47.625 c 0,-2.757001 -0.958136,-4.554977 -2.208134,-5.729367 C 65.367486,21.708144 63.56951,20.75 60.8125,20.75 Z m 11.90625,18.520833 c 0,0 -1.322916,-2e-6 -1.322916,1.322917 v 5.291666 c 0,1.32792 1.322916,1.322917 1.322916,1.322917 h 1.323446 v 10.583333 h -1.323446 c -1.322916,0 -1.322916,1.322917 -1.322916,1.322917 v 5.291667 c 0,1.322919 1.322916,1.322916 1.322916,1.322916 h 7.9375 c 0,0 1.322917,3e-6 1.322917,-1.322916 h 5.291666 c 0,1.322919 1.322917,1.322916 1.322917,1.322916 h 7.9375 c 0,0 1.322917,3e-6 1.322917,-1.322916 v -5.291667 c 0,0 0,-1.322917 -1.322917,-1.322917 H 47.583332 V 47.208333 h 1.322917 c 0,0 1.322917,0.005 1.322917,-1.322917 V 40.59375 c 0,-1.322919 -1.322917,-1.322916 -1.322917,-1.322916 h -7.9375 c -1.322917,0 -1.322917,1.322916 -1.322917,1.322916 h -5.291666 c 0,0 0,-1.322916 -1.322917,-1.322916 z m 9.260417,6.614583 h 5.291666 c 0,1.32292 -1.322916,1.322917 -1.322916,1.322917 h -2.645834 c 0,0 -1.322916,3e-6 -1.322916,-1.322917 z m 1.322916,11.90625 h 2.645834 c 0,0 1.322916,-2e-6 1.322916,1.322917 h -5.291666 c 0,-1.322919 1.322916,-1.322917 1.322916,-1.322917 z" />
  </g>
</svg>
